<?xml version="1.0" standalone="no"?>
<!DOCTYPE svg PUBLIC "-//W3C//DTD SVG 20010904//EN"
 "http://www.w3.org/TR/2001/REC-SVG-20010904/DTD/svg10.dtd">
<svg version="1.0" xmlns="http://www.w3.org/2000/svg"
 width="512.000000pt" height="512.000000pt" viewBox="0 0 512.000000 512.000000"
 preserveAspectRatio="xMidYMid meet">
<metadata>
Created by potrace 1.14, written by Peter Selinger 2001-2017
</metadata>
<g transform="translate(0.000000,512.000000) scale(0.100000,-0.100000)"
fill="#000000" stroke="none">
<path d="M948 4436 c-16 -5 -28 -14 -28 -19 0 -4 -4 -5 -10 -2 -5 3 -10 0 -10
-9 0 -8 -6 -16 -12 -18 -9 -3 -14 -42 -15 -134 -3 -165 12 -208 82 -231 18 -6
170 -10 378 -9 225 1 347 -3 347 -9 0 -7 3 -7 8 0 4 6 59 10 132 9 138 0 161
4 205 42 l30 26 2 130 c2 103 0 137 -13 164 -18 37 -52 67 -66 58 -4 -3 -8 -1
-8 4 0 13 -987 12 -1022 -2z"/>
<path d="M2751 4434 c-36 -15 -53 -31 -66 -59 -11 -26 -14 -276 -3 -269 4 3 8
-5 8 -18 0 -30 28 -54 77 -66 55 -14 1391 -9 1423 5 60 26 74 65 73 203 -2
149 -12 178 -73 204 -30 13 -128 15 -721 14 -552 0 -692 -3 -718 -14z"/>
<path d="M990 3612 c0 -5 -6 -9 -12 -10 -38 -3 -54 -12 -79 -41 -26 -32 -27
-36 -27 -166 0 -132 1 -134 29 -168 16 -19 41 -38 56 -42 31 -9 732 -14 748
-6 10 6 16 7 34 10 22 3 70 62 66 81 -2 11 -1 20 3 20 11 0 5 200 -6 238 -12
35 -26 53 -60 71 -25 13 -379 20 -400 7 -7 -4 -12 -4 -12 1 0 10 -293 9 -309
-1 -6 -4 -11 -2 -11 3 0 6 -4 11 -10 11 -5 0 -10 -4 -10 -8z"/>
<path d="M2441 3615 c-1 -5 -12 -11 -26 -11 -33 -2 -82 -54 -88 -93 -3 -18 -8
-35 -11 -39 -3 -3 -1 -11 5 -19 9 -10 8 -17 -1 -28 -7 -8 -8 -15 -3 -15 5 0 9
-9 9 -20 0 -11 -4 -20 -8 -20 -5 0 -4 -9 2 -20 8 -14 8 -20 0 -20 -7 0 -8 -5
-3 -12 4 -7 9 -24 11 -38 1 -14 11 -36 21 -50 38 -53 45 -54 471 -55 217 0
397 3 400 6 3 4 14 9 25 11 54 9 74 64 73 204 0 121 -12 163 -51 189 -37 24
-85 36 -91 22 -2 -7 -5 -7 -5 -2 -1 11 -131 12 -149 1 -7 -4 -12 -4 -12 1 0
12 -144 10 -152 -2 -5 -7 -8 -7 -8 0 0 11 -130 12 -148 1 -7 -4 -12 -4 -12 1
0 9 -213 9 -228 -1 -6 -3 -13 0 -15 6 -3 7 -6 9 -6 3z"/>
<path d="M951 2762 c-66 -22 -78 -55 -78 -212 l0 -133 38 -37 c30 -29 47 -37
69 -36 17 1 30 -2 30 -6 0 -5 8 -5 18 0 9 5 26 6 37 2 11 -4 28 -3 39 2 10 6
21 6 25 2 8 -12 31 -16 31 -7 0 7 156 7 235 2 11 -1 28 2 38 6 9 4 17 3 17 -2
0 -5 7 -10 15 -10 8 0 15 3 15 6 0 5 166 5 235 0 11 -1 28 2 38 6 9 4 17 3 17
-2 0 -5 7 -10 15 -10 8 0 15 3 15 6 0 5 166 5 235 0 11 -1 28 2 38 6 9 4 17 3
17 -2 0 -5 7 -10 15 -10 8 0 15 3 15 6 0 7 230 4 237 -3 3 -3 15 0 26 5 12 7
22 8 26 1 7 -11 101 16 101 29 0 5 8 9 17 9 9 0 13 3 10 7 -4 3 -2 12 4 19 6
8 12 36 14 62 1 27 5 55 9 61 4 6 4 11 -1 11 -4 0 -8 26 -7 57 1 81 -20 139
-57 155 -16 7 -29 15 -29 18 0 3 -333 5 -740 5 -586 0 -748 -3 -779 -13z"/>
<path d="M1006 1942 c-8 -7 -14 -9 -46 -11 -19 -1 -92 -61 -75 -61 4 0 3 -6
-2 -12 -18 -23 -16 -231 3 -277 31 -77 22 -76 439 -77 230 0 383 3 404 10 34
10 72 51 78 84 2 9 5 61 6 116 3 109 -8 156 -47 194 -22 22 -34 25 -95 26 -39
1 -71 5 -71 9 0 5 -6 5 -12 1 -19 -12 -48 -12 -48 -1 0 5 -7 4 -15 -3 -12 -10
-15 -10 -15 1 0 12 -2 12 -9 0 -6 -9 -11 -10 -15 -2 -4 6 -13 8 -19 4 -19 -12
-36 -12 -43 -2 -3 6 -11 5 -20 -2 -11 -9 -14 -8 -14 2 0 12 -2 12 -9 0 -6 -9
-11 -10 -15 -2 -4 6 -13 8 -19 4 -15 -9 -47 -11 -47 -3 0 3 -22 4 -50 0 -27
-4 -50 -2 -50 2 0 5 -6 6 -12 2 -19 -12 -48 -12 -48 -1 0 5 -7 4 -15 -3 -12
-10 -15 -10 -15 1 0 12 -2 12 -9 0 -6 -9 -10 -10 -16 -2 -4 7 -12 8 -18 3 -14
-10 -27 -10 -43 0 -6 4 -14 4 -18 0z"/>
<path d="M2460 1942 c0 -5 -10 -9 -22 -8 -22 2 -60 -16 -84 -39 -17 -16 -42
-73 -36 -80 9 -9 8 -95 -1 -95 -5 0 -5 -5 -1 -12 11 -18 10 -68 -1 -68 -5 0
-4 -4 3 -9 8 -4 13 -11 12 -15 -2 -6 2 -28 10 -54 5 -15 56 -52 75 -54 80 -6
805 -3 805 4 0 5 5 6 10 3 13 -8 72 41 79 64 2 9 5 76 6 149 2 112 -1 134 -14
142 -9 5 -12 10 -8 10 11 0 -11 22 -44 43 -14 10 -34 15 -43 11 -9 -3 -16 -1
-16 5 0 7 -8 7 -27 0 -19 -7 -29 -7 -31 0 -2 6 -12 7 -25 2 -12 -5 -31 -5 -41
-1 -11 3 -39 3 -63 0 -24 -4 -43 -3 -43 2 0 5 -6 6 -12 2 -19 -12 -48 -12 -48
-1 0 5 -7 4 -15 -3 -12 -10 -15 -10 -15 1 0 12 -2 12 -9 0 -6 -9 -11 -10 -15
-2 -4 6 -13 8 -19 4 -19 -12 -36 -12 -43 -2 -3 6 -11 5 -20 -2 -11 -9 -14 -8
-14 2 0 12 -2 12 -9 0 -6 -9 -11 -10 -15 -2 -4 6 -13 8 -19 4 -18 -11 -47 -11
-47 0 0 5 -7 4 -15 -3 -12 -10 -15 -10 -15 1 0 12 -2 12 -9 0 -6 -9 -11 -10
-15 -2 -4 6 -12 8 -18 5 -14 -9 -103 -9 -117 0 -6 4 -11 3 -11 -2z"/>
<path d="M984 1102 c-36 -7 -84 -34 -84 -48 0 -8 -5 -14 -11 -14 -5 0 -8 -4
-4 -9 3 -5 1 -12 -4 -15 -4 -3 -9 -60 -9 -126 -1 -102 2 -126 19 -158 36 -67
28 -66 574 -66 449 1 493 2 527 18 21 10 36 22 33 26 -3 4 2 11 11 14 8 3 12
10 9 16 -3 5 -2 10 4 10 7 0 10 47 8 134 -2 119 -4 138 -23 163 -41 55 -36 55
-553 56 -263 1 -486 0 -497 -1z"/>
<path d="M2806 1103 c-1 -1 -13 -4 -28 -7 -84 -15 -102 -51 -103 -204 -1 -68
2 -125 7 -128 5 -3 6 -9 3 -14 -3 -5 11 -25 30 -44 40 -40 25 -38 260 -39 90
0 143 -4 147 -11 6 -8 8 -8 8 1 0 14 257 13 279 -1 9 -6 12 -5 8 1 -8 13 472
12 492 -1 9 -6 12 -5 7 2 -9 14 134 13 153 -2 11 -8 13 -8 7 2 -6 10 1 12 33
9 22 -2 43 -2 46 1 3 3 15 7 26 9 27 4 67 45 74 76 9 36 10 205 2 247 -10 50
-46 87 -92 96 -32 6 -1353 13 -1359 7z"/>
</g>
</svg>
